<svg xmlns="http://www.w3.org/2000/svg" width="760" height="316" viewBox="0 0 760 316" font-family="ui-monospace,SFMono-Regular,Menlo,Consolas,monospace" font-size="14">
<rect width="760" height="316" rx="12" fill="#1e2430"/>
<rect width="760" height="34" rx="12" fill="#2a3242"/><rect y="20" width="760" height="14" fill="#2a3242"/>
<circle cx="20" cy="17" r="6" fill="#ff5f57"/>
<circle cx="40" cy="17" r="6" fill="#febc2e"/>
<circle cx="60" cy="17" r="6" fill="#28c840"/>
<text x="380.0" y="22" fill="#8b95a5" text-anchor="middle" font-size="12">purequant — TypeScript</text>
<text x="22" y="52" fill="#6b7688" xml:space="preserve">//&#160;npm&#160;install&#160;purequant&#160;&#160;·&#160;&#160;zero&#160;dependencies,&#160;ESM&#160;+&#160;types</text>
<text x="22" y="74" fill="#c586c0" xml:space="preserve">import</text>
<text x="72.52" y="74" fill="#c8d0dc" xml:space="preserve">&#160;</text>
<text x="80.94" y="74" fill="#9aa4b2" xml:space="preserve">{</text>
<text x="89.36" y="74" fill="#c8d0dc" xml:space="preserve">&#160;</text>
<text x="97.78" y="74" fill="#c8d0dc" xml:space="preserve">risk</text>
<text x="131.46" y="74" fill="#9aa4b2" xml:space="preserve">,</text>
<text x="139.88" y="74" fill="#c8d0dc" xml:space="preserve">&#160;</text>
<text x="148.29999999999998" y="74" fill="#c8d0dc" xml:space="preserve">derivatives</text>
<text x="240.92" y="74" fill="#c8d0dc" xml:space="preserve">&#160;</text>
<text x="249.33999999999997" y="74" fill="#c8d0dc" xml:space="preserve">as</text>
<text x="266.17999999999995" y="74" fill="#c8d0dc" xml:space="preserve">&#160;</text>
<text x="274.59999999999997" y="74" fill="#c8d0dc" xml:space="preserve">dv</text>
<text x="291.43999999999994" y="74" fill="#9aa4b2" xml:space="preserve">,</text>
<text x="299.85999999999996" y="74" fill="#c8d0dc" xml:space="preserve">&#160;</text>
<text x="308.28" y="74" fill="#c8d0dc" xml:space="preserve">bonds</text>
<text x="350.38" y="74" fill="#9aa4b2" xml:space="preserve">,</text>
<text x="358.8" y="74" fill="#c8d0dc" xml:space="preserve">&#160;</text>
<text x="367.22" y="74" fill="#c8d0dc" xml:space="preserve">optimize</text>
<text x="434.58000000000004" y="74" fill="#c8d0dc" xml:space="preserve">&#160;</text>
<text x="443.00000000000006" y="74" fill="#9aa4b2" xml:space="preserve">}</text>
<text x="451.4200000000001" y="74" fill="#c8d0dc" xml:space="preserve">&#160;</text>
<text x="459.8400000000001" y="74" fill="#c586c0" xml:space="preserve">from</text>
<text x="493.5200000000001" y="74" fill="#c8d0dc" xml:space="preserve">&#160;</text>
<text x="501.9400000000001" y="74" fill="#8fce7e" xml:space="preserve">&quot;purequant&quot;</text>
<text x="594.5600000000002" y="74" fill="#9aa4b2" xml:space="preserve">;</text>
<text x="22" y="118" fill="#c8d0dc" xml:space="preserve">risk</text>
<text x="55.68" y="118" fill="#9aa4b2" xml:space="preserve">.</text>
<text x="64.1" y="118" fill="#6bb3e0" xml:space="preserve">historicalVar</text>
<text x="173.56" y="118" fill="#9aa4b2" xml:space="preserve">(</text>
<text x="181.98" y="118" fill="#c8d0dc" xml:space="preserve">returns</text>
<text x="240.92" y="118" fill="#9aa4b2" xml:space="preserve">,</text>
<text x="249.33999999999997" y="118" fill="#c8d0dc" xml:space="preserve">&#160;</text>
<text x="257.76" y="118" fill="#e0a060" xml:space="preserve">0.95</text>
<text x="291.44" y="118" fill="#9aa4b2" xml:space="preserve">)</text>
<text x="299.86" y="118" fill="#9aa4b2" xml:space="preserve">;</text>
<text x="308.28000000000003" y="118" fill="#c8d0dc" xml:space="preserve">&#160;&#160;&#160;&#160;&#160;&#160;</text>
<text x="358.8" y="118" fill="#6b7688" xml:space="preserve">//&#160;1-day&#160;95%&#160;VaR</text>
<text x="22" y="140" fill="#c8d0dc" xml:space="preserve">risk</text>
<text x="55.68" y="140" fill="#9aa4b2" xml:space="preserve">.</text>
<text x="64.1" y="140" fill="#6bb3e0" xml:space="preserve">riskContributions</text>
<text x="207.23999999999998" y="140" fill="#9aa4b2" xml:space="preserve">(</text>
<text x="215.65999999999997" y="140" fill="#c8d0dc" xml:space="preserve">weights</text>
<text x="274.59999999999997" y="140" fill="#9aa4b2" xml:space="preserve">,</text>
<text x="283.02" y="140" fill="#c8d0dc" xml:space="preserve">&#160;</text>
<text x="291.44" y="140" fill="#c8d0dc" xml:space="preserve">rets</text>
<text x="325.12" y="140" fill="#9aa4b2" xml:space="preserve">)</text>
<text x="333.54" y="140" fill="#9aa4b2" xml:space="preserve">;</text>
<text x="341.96000000000004" y="140" fill="#c8d0dc" xml:space="preserve">&#160;&#160;</text>
<text x="358.8" y="140" fill="#6b7688" xml:space="preserve">//&#160;who&#160;eats&#160;the&#160;risk&#160;budget</text>
<text x="22" y="184" fill="#c8d0dc" xml:space="preserve">dv</text>
<text x="38.84" y="184" fill="#9aa4b2" xml:space="preserve">.</text>
<text x="47.260000000000005" y="184" fill="#6bb3e0" xml:space="preserve">bsmPrice</text>
<text x="114.62" y="184" fill="#9aa4b2" xml:space="preserve">(</text>
<text x="123.04" y="184" fill="#e0a060" xml:space="preserve">100</text>
<text x="148.3" y="184" fill="#9aa4b2" xml:space="preserve">,</text>
<text x="156.72" y="184" fill="#c8d0dc" xml:space="preserve">&#160;</text>
<text x="165.14" y="184" fill="#e0a060" xml:space="preserve">105</text>
<text x="190.39999999999998" y="184" fill="#9aa4b2" xml:space="preserve">,</text>
<text x="198.81999999999996" y="184" fill="#c8d0dc" xml:space="preserve">&#160;</text>
<text x="207.23999999999995" y="184" fill="#e0a060" xml:space="preserve">0.5</text>
<text x="232.49999999999994" y="184" fill="#9aa4b2" xml:space="preserve">,</text>
<text x="240.91999999999993" y="184" fill="#c8d0dc" xml:space="preserve">&#160;</text>
<text x="249.33999999999992" y="184" fill="#e0a060" xml:space="preserve">0.03</text>
<text x="283.0199999999999" y="184" fill="#9aa4b2" xml:space="preserve">,</text>
<text x="291.43999999999994" y="184" fill="#c8d0dc" xml:space="preserve">&#160;</text>
<text x="299.85999999999996" y="184" fill="#e0a060" xml:space="preserve">0.25</text>
<text x="333.53999999999996" y="184" fill="#9aa4b2" xml:space="preserve">,</text>
<text x="341.96" y="184" fill="#c8d0dc" xml:space="preserve">&#160;</text>
<text x="350.38" y="184" fill="#8fce7e" xml:space="preserve">&quot;call&quot;</text>
<text x="400.9" y="184" fill="#9aa4b2" xml:space="preserve">)</text>
<text x="409.32" y="184" fill="#9aa4b2" xml:space="preserve">;</text>
<text x="417.74" y="184" fill="#c8d0dc" xml:space="preserve">&#160;&#160;&#160;</text>
<text x="443.0" y="184" fill="#6b7688" xml:space="preserve">//&#160;Black-Scholes</text>
<text x="22" y="206" fill="#c8d0dc" xml:space="preserve">dv</text>
<text x="38.84" y="206" fill="#9aa4b2" xml:space="preserve">.</text>
<text x="47.260000000000005" y="206" fill="#6bb3e0" xml:space="preserve">bsmGreeks</text>
<text x="123.04" y="206" fill="#9aa4b2" xml:space="preserve">(</text>
<text x="131.46" y="206" fill="#e0a060" xml:space="preserve">100</text>
<text x="156.72" y="206" fill="#9aa4b2" xml:space="preserve">,</text>
<text x="165.14" y="206" fill="#c8d0dc" xml:space="preserve">&#160;</text>
<text x="173.55999999999997" y="206" fill="#e0a060" xml:space="preserve">105</text>
<text x="198.81999999999996" y="206" fill="#9aa4b2" xml:space="preserve">,</text>
<text x="207.23999999999995" y="206" fill="#c8d0dc" xml:space="preserve">&#160;</text>
<text x="215.65999999999994" y="206" fill="#e0a060" xml:space="preserve">0.5</text>
<text x="240.91999999999993" y="206" fill="#9aa4b2" xml:space="preserve">,</text>
<text x="249.33999999999992" y="206" fill="#c8d0dc" xml:space="preserve">&#160;</text>
<text x="257.75999999999993" y="206" fill="#e0a060" xml:space="preserve">0.03</text>
<text x="291.43999999999994" y="206" fill="#9aa4b2" xml:space="preserve">,</text>
<text x="299.85999999999996" y="206" fill="#c8d0dc" xml:space="preserve">&#160;</text>
<text x="308.28" y="206" fill="#e0a060" xml:space="preserve">0.25</text>
<text x="341.96" y="206" fill="#9aa4b2" xml:space="preserve">,</text>
<text x="350.38" y="206" fill="#c8d0dc" xml:space="preserve">&#160;</text>
<text x="358.8" y="206" fill="#8fce7e" xml:space="preserve">&quot;call&quot;</text>
<text x="409.32" y="206" fill="#9aa4b2" xml:space="preserve">)</text>
<text x="417.74" y="206" fill="#9aa4b2" xml:space="preserve">;</text>
<text x="426.16" y="206" fill="#c8d0dc" xml:space="preserve">&#160;&#160;</text>
<text x="443.0" y="206" fill="#6b7688" xml:space="preserve">//&#160;delta,&#160;gamma...</text>
<text x="22" y="250" fill="#c586c0" xml:space="preserve">const</text>
<text x="64.1" y="250" fill="#c8d0dc" xml:space="preserve">&#160;</text>
<text x="72.52" y="250" fill="#c8d0dc" xml:space="preserve">cov</text>
<text x="97.78" y="250" fill="#c8d0dc" xml:space="preserve">&#160;</text>
<text x="106.2" y="250" fill="#9aa4b2" xml:space="preserve">=</text>
<text x="114.62" y="250" fill="#c8d0dc" xml:space="preserve">&#160;</text>
<text x="123.04" y="250" fill="#9aa4b2" xml:space="preserve">[</text>
<text x="131.46" y="250" fill="#9aa4b2" xml:space="preserve">[</text>
<text x="139.88" y="250" fill="#e0a060" xml:space="preserve">0.04</text>
<text x="173.56" y="250" fill="#9aa4b2" xml:space="preserve">,</text>
<text x="181.98" y="250" fill="#c8d0dc" xml:space="preserve">&#160;</text>
<text x="190.39999999999998" y="250" fill="#e0a060" xml:space="preserve">0.006</text>
<text x="232.49999999999997" y="250" fill="#9aa4b2" xml:space="preserve">,</text>
<text x="240.91999999999996" y="250" fill="#c8d0dc" xml:space="preserve">&#160;</text>
<text x="249.33999999999995" y="250" fill="#e0a060" xml:space="preserve">0</text>
<text x="257.75999999999993" y="250" fill="#9aa4b2" xml:space="preserve">]</text>
<text x="266.17999999999995" y="250" fill="#9aa4b2" xml:space="preserve">,</text>
<text x="274.59999999999997" y="250" fill="#c8d0dc" xml:space="preserve">&#160;</text>
<text x="283.02" y="250" fill="#9aa4b2" xml:space="preserve">[</text>
<text x="291.44" y="250" fill="#e0a060" xml:space="preserve">0.006</text>
<text x="333.54" y="250" fill="#9aa4b2" xml:space="preserve">,</text>
<text x="341.96000000000004" y="250" fill="#c8d0dc" xml:space="preserve">&#160;</text>
<text x="350.38000000000005" y="250" fill="#e0a060" xml:space="preserve">0.09</text>
<text x="384.06000000000006" y="250" fill="#9aa4b2" xml:space="preserve">,</text>
<text x="392.4800000000001" y="250" fill="#c8d0dc" xml:space="preserve">&#160;</text>
<text x="400.9000000000001" y="250" fill="#e0a060" xml:space="preserve">0</text>
<text x="409.3200000000001" y="250" fill="#9aa4b2" xml:space="preserve">]</text>
<text x="417.7400000000001" y="250" fill="#9aa4b2" xml:space="preserve">,</text>
<text x="426.16000000000014" y="250" fill="#c8d0dc" xml:space="preserve">&#160;</text>
<text x="434.58000000000015" y="250" fill="#9aa4b2" xml:space="preserve">[</text>
<text x="443.00000000000017" y="250" fill="#e0a060" xml:space="preserve">0</text>
<text x="451.4200000000002" y="250" fill="#9aa4b2" xml:space="preserve">,</text>
<text x="459.8400000000002" y="250" fill="#c8d0dc" xml:space="preserve">&#160;</text>
<text x="468.2600000000002" y="250" fill="#e0a060" xml:space="preserve">0</text>
<text x="476.68000000000023" y="250" fill="#9aa4b2" xml:space="preserve">,</text>
<text x="485.10000000000025" y="250" fill="#c8d0dc" xml:space="preserve">&#160;</text>
<text x="493.52000000000027" y="250" fill="#e0a060" xml:space="preserve">0.01</text>
<text x="527.2000000000003" y="250" fill="#9aa4b2" xml:space="preserve">]</text>
<text x="535.6200000000002" y="250" fill="#9aa4b2" xml:space="preserve">]</text>
<text x="544.0400000000002" y="250" fill="#9aa4b2" xml:space="preserve">;</text>
<text x="22" y="272" fill="#c8d0dc" xml:space="preserve">optimize</text>
<text x="89.36" y="272" fill="#9aa4b2" xml:space="preserve">.</text>
<text x="97.78" y="272" fill="#6bb3e0" xml:space="preserve">riskParity</text>
<text x="181.98000000000002" y="272" fill="#9aa4b2" xml:space="preserve">(</text>
<text x="190.4" y="272" fill="#c8d0dc" xml:space="preserve">cov</text>
<text x="215.66" y="272" fill="#9aa4b2" xml:space="preserve">,</text>
<text x="224.07999999999998" y="272" fill="#c8d0dc" xml:space="preserve">&#160;</text>
<text x="232.49999999999997" y="272" fill="#9aa4b2" xml:space="preserve">[</text>
<text x="240.91999999999996" y="272" fill="#8fce7e" xml:space="preserve">&quot;A&quot;</text>
<text x="266.17999999999995" y="272" fill="#9aa4b2" xml:space="preserve">,</text>
<text x="274.59999999999997" y="272" fill="#c8d0dc" xml:space="preserve">&#160;</text>
<text x="283.02" y="272" fill="#8fce7e" xml:space="preserve">&quot;B&quot;</text>
<text x="308.28" y="272" fill="#9aa4b2" xml:space="preserve">,</text>
<text x="316.7" y="272" fill="#c8d0dc" xml:space="preserve">&#160;</text>
<text x="325.12" y="272" fill="#8fce7e" xml:space="preserve">&quot;C&quot;</text>
<text x="350.38" y="272" fill="#9aa4b2" xml:space="preserve">]</text>
<text x="358.8" y="272" fill="#9aa4b2" xml:space="preserve">)</text>
<text x="367.22" y="272" fill="#9aa4b2" xml:space="preserve">;</text>
<text x="375.64000000000004" y="272" fill="#c8d0dc" xml:space="preserve">&#160;&#160;&#160;&#160;&#160;&#160;&#160;&#160;&#160;</text>
<text x="451.4200000000001" y="272" fill="#6b7688" xml:space="preserve">//&#160;equal&#160;risk</text>
</svg>